<svg xmlns="http://www.w3.org/2000/svg" width="63.886" height="50" viewBox="0 0 63.886 50">
  <path id="activities-overdue" d="M32.193,44.005l12.84-22.531c1.625-2.557,4.214-2.624,5.876,0L63.52,43.725c1.042,2.111.521,4.947-2.907,4.89H34.9c-2.266.057-3.725-1.919-2.693-4.61ZM23.821,33.224V26.7a2.107,2.107,0,0,1-.656-.819l-4.48-2.219a.825.825,0,0,1-.469.56.856.856,0,0,1-1.141-.41l-1.042-2.168a.852.852,0,0,1,0-.659h0a.859.859,0,0,1,.641-.519l2.365-.436a.854.854,0,0,1,1,.69.837.837,0,0,1-.172.685l3.933,1.93a2.149,2.149,0,0,1,3,.4,2.126,2.126,0,0,1-.4,2.99v6.5a.857.857,0,0,1,.865,1.364L25.8,36.481a.871.871,0,0,1-.677.337h0a.871.871,0,0,1-.677-.337l-1.49-1.893a.86.86,0,0,1,.865-1.364Zm-15.19-9.63a1.406,1.406,0,0,1,0,2.811H7.069a1.405,1.405,0,1,1,0-2.811ZM23.7,41.62a1.412,1.412,0,0,1,2.823,0v1.53a1.412,1.412,0,0,1-2.823,0Zm0-34.568a1.412,1.412,0,0,1,2.823,0V8.608a1.412,1.412,0,0,1-2.823,0Zm-9.746,3.225a1.4,1.4,0,1,1,2.438-1.4l.8,1.333a1.4,1.4,0,0,1-2.438,1.4l-.771-1.333ZM33.5,9.058a1.4,1.4,0,1,1,2.438,1.4l-.771,1.333a1.41,1.41,0,1,1-2.438-1.416L33.5,9.037ZM7.98,17.408a1.4,1.4,0,0,1,1.4-2.432l1.339.773a1.4,1.4,0,0,1-1.406,2.427l-1.334-.767ZM40.9,14.976a1.4,1.4,0,1,1,1.4,2.432l-1.339.767a1.4,1.4,0,0,1-1.4-2.427ZM10.184,35.848a1.4,1.4,0,1,1-1.4-2.427l1.339-.752a1.4,1.4,0,1,1,1.4,2.427l-1.339.767Zm6.485,5.409a1.4,1.4,0,0,1-2.438-1.4L15,38.529a1.4,1.4,0,1,1,2.422,1.4ZM25.113,0a25.139,25.139,0,0,1,23.3,15.655h-.438a5.5,5.5,0,0,0-2.084.425A22.593,22.593,0,1,0,25.113,47.506a23.226,23.226,0,0,0,2.834-.176,5.54,5.54,0,0,0,.891,2.209l.12.171a25.409,25.409,0,0,1-3.844.29,25,25,0,1,1,0-50ZM46.726,42a1.735,1.735,0,0,1,1.828-.379,1.8,1.8,0,0,1,.63.4,1.713,1.713,0,0,1,.521,1.1,1.631,1.631,0,0,1-1.782,1.841,1.84,1.84,0,0,1-.708-.166,1.734,1.734,0,0,1-.854-2.339A1.557,1.557,0,0,1,46.726,42Zm2.542-3.174c-.063,1.488-2.6,1.488-2.646,0-.26-2.572-.912-7.41-.891-9.79.057-1.929,4.423-1.877,4.423.041v.073l-.886,9.666Z" transform="translate(-0.114)" fill="#8c8b99" fill-rule="evenodd"/>
</svg>
