<svg xmlns="http://www.w3.org/2000/svg" width="43.998" height="50" viewBox="0 0 43.998 50">
  <path id="asset-locator" d="M23.645,29.761a.684.684,0,0,1-.773.024,26.929,26.929,0,0,1-6.7-5.859,20.681,20.681,0,0,1-4.511-9.534A12.4,12.4,0,0,1,13.3,5.473a11.069,11.069,0,0,1,2.492-2.71A12.294,12.294,0,0,1,23.412,0a10.92,10.92,0,0,1,7.253,2.9A10.629,10.629,0,0,1,32.6,5.208,13.874,13.874,0,0,1,33.976,15.43,22.515,22.515,0,0,1,23.645,29.761Zm-7.893.3v11.32l12.525,5.29V32.093A26.916,26.916,0,0,0,30.956,29.8V46.558l10.385-5.123V18.648l-3.992,1.506a24.69,24.69,0,0,0,.989-3.178L42.2,15.515a1.346,1.346,0,0,1,1.707.761,1.271,1.271,0,0,1,.091.472V42.261a1.314,1.314,0,0,1-.831,1.221L30.208,49.858a1.367,1.367,0,0,1-1.213,0L14.456,43.685,1.944,49.858a1.363,1.363,0,0,1-1.022.076,1.33,1.33,0,0,1-.777-.654A1.313,1.313,0,0,1,0,48.69V21.664A1.318,1.318,0,0,1,.964,20.4l6.8-2.572a23.536,23.536,0,0,0,.9,2.47l-5.98,2.261V46.566l10.385-5.123V27.3a31.323,31.323,0,0,0,2.683,2.762ZM22.91,5.782a5.642,5.642,0,0,1,5.7,5.583,5.7,5.7,0,0,1-11.4,0,5.642,5.642,0,0,1,5.7-5.583Z" fill="#8c8b99" fill-rule="evenodd"/>
</svg>
