<svg xmlns="http://www.w3.org/2000/svg" width="53" height="50.006" viewBox="0 0 53 50.006">
  <path id="asset-register" d="M7.112,10.686a42.315,42.315,0,0,0,12.84,1.77,42.142,42.142,0,0,0,12.827-1.77c2.86-.954,4.628-2.1,4.628-3.23s-1.75-2.276-4.627-3.23A42.338,42.338,0,0,0,19.957,2.47,42.594,42.594,0,0,0,7.112,4.226c-6.064,2.019-6.237,4.385,0,6.443ZM28,23.769H49.015A3.99,3.99,0,0,1,53,27.738V46.027A3.99,3.99,0,0,1,49.015,50H28a3.99,3.99,0,0,1-3.985-3.973V27.738A3.99,3.99,0,0,1,28,23.769ZM39.288,42.6H50.9v5.154H39.288Zm-13.323,0H37.58v5.154H25.965V42.6Zm0-13.7H37.58v5.154H25.965V28.9Zm0,6.846H37.58V40.9H25.965V35.749ZM39.288,28.9H50.9v5.154H39.288Zm0,6.846H50.9V40.9H39.288ZM2.51,19.659c.224,1.052,1.941,2.109,4.606,3.007A41.573,41.573,0,0,0,19.3,24.418V26.9A44.1,44.1,0,0,1,6.336,25.011a15.5,15.5,0,0,1-3.817-1.817v7.418c.224,1.052,1.941,2.109,4.606,3.007A41.836,41.836,0,0,0,19.3,35.366v2.47a44.085,44.085,0,0,1-12.961-1.89,15.591,15.591,0,0,1-3.821-1.8v7.409c.224,1.052,1.945,2.109,4.606,3.007A41,41,0,0,0,19.3,46.315v2.47A43.7,43.7,0,0,1,6.361,46.9C4.486,46.267,0,44.24,0,41.826V7.478c0-2.332,2.42-4.3,6.323-5.584A44.868,44.868,0,0,1,19.957,0a44.859,44.859,0,0,1,13.63,1.894c3.524,1.173,5.883,2.912,6.276,4.952a1.284,1.284,0,0,1,.069.43V19.56H37.438V11.206a15.855,15.855,0,0,1-3.852,1.813,44.492,44.492,0,0,1-13.621,1.894A45.492,45.492,0,0,1,6.323,13.019,15.669,15.669,0,0,1,2.5,11.228v8.431Z" transform="translate(0 0.006)" fill="#8c8b99" fill-rule="evenodd"/>
</svg>
