<svg xmlns="http://www.w3.org/2000/svg" width="61" height="50" viewBox="0 0 61 50">
  <path id="asset-condition" d="M32.918,0A22.165,22.165,0,0,1,52.362,11.441a21.582,21.582,0,0,1-.933,22.32L61,44.048,54.4,50,45.174,39.987a22.363,22.363,0,0,1-27.9-2.733,22.159,22.159,0,0,1-2.954-3.62l4.721-.558q.566.676,1.191,1.293A18.153,18.153,0,0,0,37.8,39.363,17.878,17.878,0,0,0,50.735,26.6,17.6,17.6,0,0,0,45.671,9.263h0A18.139,18.139,0,0,0,17.092,13.4l-4.9.8A21.968,21.968,0,0,1,32.918,0ZM20.269,18.81,3.475,21.11,0,25.566l4.468,3.385,2.6-3.346,3.723,2.807,2.844-3.659,3.549,2.68,3.589-2.523a12.862,12.862,0,0,0,4.433,6.06C30.781,35.207,38.723,34.326,42.834,29A12.28,12.28,0,0,0,40.19,11.683a12.682,12.682,0,0,0-17.633,1.959,11.68,11.68,0,0,0-2.288,5.168Zm13.369-4.6a7.144,7.144,0,0,1,6.1,6.123h2.14v2.023H39.714a7.158,7.158,0,0,1-6.071,5.878v2.234H31.587v-2.2a7.143,7.143,0,0,1-6.066-5.878H23.332V20.349h2.135a7.144,7.144,0,0,1,6.121-6.143v-1.96h2.045V14.2ZM32.61,17.488a3.81,3.81,0,1,1-.015,0Zm4.155-.343a5.932,5.932,0,0,0-7.415-.717,5.752,5.752,0,0,0-2.16,7.036,5.889,5.889,0,0,0,6.572,3.464,5.815,5.815,0,0,0,4.726-5.684,5.747,5.747,0,0,0-1.723-4.1Z" transform="translate(0 0)" fill="#8c8b99" fill-rule="evenodd"/>
</svg>
