<svg xmlns="http://www.w3.org/2000/svg" width="22" height="23" viewBox="0 0 22 23">
  <g id="Calendar" transform="translate(0.001 -0.004)">
    <g id="Group_33" data-name="Group 33" transform="translate(-0.001 0.004)">
      <path id="Path_458" data-name="Path 458" d="M17.752,1.771h-.821V.9a.86.86,0,1,0-1.718,0v.869H6.785V.9A.86.86,0,1,0,5.068.9v.869H4.247A4.354,4.354,0,0,0,0,6.214V18.561A4.354,4.354,0,0,0,4.247,23h13.5A4.354,4.354,0,0,0,22,18.561V6.214a4.354,4.354,0,0,0-4.248-4.443Zm-13.5,1.8h.821V5.319a.86.86,0,1,0,1.718,0V3.568h8.428V5.319a.86.86,0,1,0,1.718,0V3.568h.821a2.592,2.592,0,0,1,2.529,2.645v.859H1.718V6.212a2.592,2.592,0,0,1,2.53-2.645Zm13.5,17.639H4.248a2.593,2.593,0,0,1-2.53-2.646V8.867H20.283V18.56a2.593,2.593,0,0,1-2.53,2.646ZM7.631,12.4a.88.88,0,0,1-.859.9H5.082a.9.9,0,0,1,0-1.8h1.69A.88.88,0,0,1,7.631,12.4Zm10.146,0a.88.88,0,0,1-.859.9h-1.69a.9.9,0,0,1,0-1.8h1.69A.88.88,0,0,1,17.777,12.4Zm-5.077,0a.88.88,0,0,1-.859.9h-1.69a.9.9,0,0,1,0-1.8h1.69A.88.88,0,0,1,12.7,12.4ZM7.632,17.7a.88.88,0,0,1-.859.9H5.084a.9.9,0,0,1,0-1.8h1.69A.88.88,0,0,1,7.632,17.7Zm10.146,0a.88.88,0,0,1-.859.9H15.23a.9.9,0,0,1,0-1.8h1.69A.88.88,0,0,1,17.778,17.7Zm-5.077,0a.88.88,0,0,1-.859.9h-1.69a.9.9,0,0,1,0-1.8h1.69A.88.88,0,0,1,12.7,17.7Z" transform="translate(0.001 -0.004)" fill="#707072"/>
    </g>
  </g>
</svg>
