<svg id="Group_33" data-name="Group 33" xmlns="http://www.w3.org/2000/svg" width="21" height="21" viewBox="0 0 21 21">
  <path id="Path_458" data-name="Path 458" d="M16.945,1.617h-.784V.824a.82.82,0,1,0-1.64,0v.793H6.477V.824a.82.82,0,1,0-1.64,0v.793H4.054A4.06,4.06,0,0,0,0,5.674V16.948A4.06,4.06,0,0,0,4.054,21H16.944A4.06,4.06,0,0,0,21,16.948V5.674a4.06,4.06,0,0,0-4.055-4.056ZM4.055,3.258h.784v1.6a.82.82,0,1,0,1.64,0v-1.6h8.045v1.6a.82.82,0,1,0,1.64,0v-1.6h.784a2.417,2.417,0,0,1,2.414,2.415v.784H1.64V5.673A2.417,2.417,0,0,1,4.055,3.258Zm12.891,16.1H4.055A2.418,2.418,0,0,1,1.64,16.947V8.1H19.361v8.85A2.418,2.418,0,0,1,16.945,19.363ZM7.284,11.324a.82.82,0,0,1-.82.82H4.851a.82.82,0,0,1,0-1.64H6.464A.82.82,0,0,1,7.284,11.324Zm9.685,0a.82.82,0,0,1-.82.82H14.536a.82.82,0,0,1,0-1.64h1.613A.82.82,0,0,1,16.969,11.324Zm-4.847,0a.82.82,0,0,1-.82.82H9.69a.82.82,0,0,1,0-1.64H11.3A.82.82,0,0,1,12.122,11.324ZM7.285,16.163a.82.82,0,0,1-.82.82H4.853a.82.82,0,0,1,0-1.64H6.465A.82.82,0,0,1,7.285,16.163Zm9.685,0a.82.82,0,0,1-.82.82H14.537a.82.82,0,0,1,0-1.64H16.15A.82.82,0,0,1,16.97,16.163Zm-4.847,0a.82.82,0,0,1-.82.82H9.691a.82.82,0,0,1,0-1.64H11.3A.82.82,0,0,1,12.123,16.163Z" transform="translate(0.001 -0.004)" fill="#e72a2a"/>
</svg>
