<svg xmlns="http://www.w3.org/2000/svg" width="56" height="50" viewBox="0 0 56 50">
  <g id="dashboard" transform="translate(587 -7830)">
    <path id="Path_2151" data-name="Path 2151" d="M3.417,0H52.583C54.451,0,56,1.986,56,4.381V45.619C56,48.014,54.451,50,52.583,50H3.417C1.549,50,0,48.014,0,45.619V4.381C0,1.986,1.549,0,3.417,0ZM52.674,8.236H3.281V45.853H52.674Z" transform="translate(-587 7830)" fill="#8c8b99" fill-rule="evenodd"/>
    <path id="Path_2152" data-name="Path 2152" d="M69.9,43.392H83.777V45.34H69.9Zm0-4.966H88.938v1.948H69.9Zm10.809-8.813h2.727a.23.23,0,0,1,.243.243v5.356a.23.23,0,0,1-.243.243H80.709a.23.23,0,0,1-.243-.243V29.856a.261.261,0,0,1,.243-.243ZM70.192,26.35h2.727a.23.23,0,0,1,.243.243V35.26a.23.23,0,0,1-.243.243H70.192a.23.23,0,0,1-.243-.243V26.594c-.049-.146.1-.243.243-.243Zm5.259-1.85h2.727a.23.23,0,0,1,.243.243V35.261a.23.23,0,0,1-.243.243H75.451a.23.23,0,0,1-.243-.243V24.743a.23.23,0,0,1,.243-.243Z" transform="translate(-626.273 7821.839)" fill="#8c8b99" fill-rule="evenodd"/>
    <path id="Path_2153" data-name="Path 2153" d="M27.439,35.987l8.157.147a9,9,0,0,1-3.838,7.416L27.44,35.987Zm-.816-1.424-.1-9.724V24.2l.624.049h0a11.414,11.414,0,0,1,2.255.393,10.711,10.711,0,0,1,2.063.835,11.2,11.2,0,0,1,5.806,9.331l.048.638H36.7l-9.452-.295H26.72l-.1-.589Zm1.056-9.135.1,8.545,8.3.246a10.051,10.051,0,0,0-5.134-7.76,11.841,11.841,0,0,0-1.823-.737c-.528-.1-.96-.2-1.439-.3ZM25.808,35.5l4.654,8.251a9.231,9.231,0,0,1-4.654,1.277,9.539,9.539,0,0,1-.384-19.055l.384,9.528Z" transform="translate(-596.658 7822.139)" fill="#8c8b99" fill-rule="evenodd"/>
  </g>
</svg>
