<svg xmlns="http://www.w3.org/2000/svg" width="73" height="50" viewBox="0 0 73 50">
  <path id="defect-coverage" d="M68.153,21.172V49.16A.854.854,0,0,1,67.3,50H59.924a.854.854,0,0,1-.856-.84V28.344c1.509-1.446,3.357-3.2,5.247-4.98l2.971-2.81a7.625,7.625,0,0,0,.862.618ZM17.91,13.592a12.639,12.639,0,0,0-4.8.583h-.036a12.136,12.136,0,0,0-8.11,14.268,11.782,11.782,0,0,0,1.064,2.875L.192,36.8a.575.575,0,0,0,0,.822l3.3,3.394a.6.6,0,0,0,.838,0L9.948,35.7A12.426,12.426,0,0,0,12.7,37.14a12.971,12.971,0,0,0,3.565.758,12.516,12.516,0,0,0,10.629-4.729A12,12,0,0,0,28.83,21.875h0a12.359,12.359,0,0,0-10.92-8.266Zm-7.356,4.845a10.024,10.024,0,0,1,13.975.933v.03a9.693,9.693,0,0,1,1.9,3.259h0A9.7,9.7,0,0,1,20.21,34.985a10.159,10.159,0,0,1-3.826.478,9.913,9.913,0,0,1-3.731-.985h0a9.9,9.9,0,0,1-3.03-2.332l-.03-.035a9.653,9.653,0,0,1-1.9-3.259v-.029a9.632,9.632,0,0,1,2.888-10.391Zm16.987-4.711,6.536-5.6c4.314,4.152,8.5,9.166,12.769,13.306L62.4,6.082,57.375,1.166,73.019,0,72.14,15.644l-4.813-4.723c-3.452,3.434-11.616,11-15.074,14.391-4.367,4.286-6.453,4.367-10.82.076l-7.38-8.052L31.76,19.329a16.523,16.523,0,0,0-.814-1.574,15.345,15.345,0,0,0-1.783-2.437h0a15.568,15.568,0,0,0-1.646-1.586ZM38.486,32V49.16a.854.854,0,0,1-.856.84H30.257a.854.854,0,0,1-.856-.84V36.688a17.008,17.008,0,0,0,1.26-1.423,15.9,15.9,0,0,0,1.729-2.717,15.72,15.72,0,0,0,1.575-5.015l1.967,2.146.255.262A29.886,29.886,0,0,0,38.486,32ZM23.632,40.455v8.7a.854.854,0,0,1-.856.84H15.421a.854.854,0,0,1-.856-.84v-7.8a18.021,18.021,0,0,0,1.83.222,17.222,17.222,0,0,0,6.4-.816c.285-.1.594-.2.85-.309Zm29.685-7.178V49.16a.854.854,0,0,1-.856.84H45.087a.854.854,0,0,1-.856-.84V34.933a11.629,11.629,0,0,0,2.7.268,11.917,11.917,0,0,0,6.386-1.924Z" transform="translate(-0.019)" fill="#8c8b99" fill-rule="evenodd"/>
</svg>
