<svg xmlns="http://www.w3.org/2000/svg" width="45" height="50.003" viewBox="0 0 45 50.003">
  <path id="ex-inspection" d="M3.342,0H41.654A3.318,3.318,0,0,1,45,3.28V34.888a3.322,3.322,0,0,1-3.346,3.276H25.977V38.1c0-.549,0-1.086-.025-1.986H42.086a.931.931,0,0,0,.653-.266.894.894,0,0,0,.268-.641V7.918H2.126V35.205a.838.838,0,0,0,.029.228,2.93,2.93,0,0,0-.079.647,3.86,3.86,0,0,0,.357,1.7,2.08,2.08,0,0,0,.149.285h0A3.307,3.307,0,0,1,0,34.888V3.28A3.317,3.317,0,0,1,3.342,0ZM11.16,28.1a1.412,1.412,0,0,1,1.046.363,1.355,1.355,0,0,1,.445,1V38.18h.9V33.9c0-1.729,2.782-1.676,2.782.1v4.272H17.35v-3.41c0-1.729,2.782-1.676,2.782.094v3.158h.98v-2.4c0-1.729,2.782-1.676,2.782.094,0,1.994.116,4.346.042,6.335-.079,2.185-.54,4.647-2.155,6.022A7.654,7.654,0,0,1,15.552,49.9c-3.828-.594-4.8-2.893-6.618-5.725L4.3,36.987c-.286-.655-.249-1.1.037-1.383,1.246-.781,3.23.879,5.447,3.227h.079V29.37A1.283,1.283,0,0,1,11.16,28.1ZM7.174,16.4a1.419,1.419,0,0,1,.444-1.929,1.485,1.485,0,0,1,1.988.334l.793.854,2.329-2.848a1.483,1.483,0,0,1,2.059-.2,1.414,1.414,0,0,1,.2,2.018l-3.521,4.146a1.552,1.552,0,0,1-.349.326,1.49,1.49,0,0,1-1.1.211,1.467,1.467,0,0,1-.931-.617l-1.91-2.311ZM36.589,27.9a1.5,1.5,0,0,0,0-3.007H20.555a1.544,1.544,0,0,0-1.4.728,1.48,1.48,0,0,0,0,1.551,1.544,1.544,0,0,0,1.4.728Zm0-10.579a1.5,1.5,0,0,0,0-3.007H20.555a1.544,1.544,0,0,0-1.4.728,1.48,1.48,0,0,0,0,1.551,1.544,1.544,0,0,0,1.4.728ZM7.324,22.229h7.622a1.032,1.032,0,0,1,1.042,1.021v6.3a1.036,1.036,0,0,1-1.042,1.021h-.22v-1.1a3.218,3.218,0,0,0-.83-2.185V24.272H8.366v3.3a3.209,3.209,0,0,0-.556,1.8v1.2H7.324a1.036,1.036,0,0,1-1.042-1.021v-6.3a1.032,1.032,0,0,1,1.042-1.021ZM38.469,2.848a1.628,1.628,0,1,1-1.661,1.628A1.628,1.628,0,0,1,38.469,2.848Zm-11.189,0a1.628,1.628,0,1,1-1.66,1.628,1.628,1.628,0,0,1,1.66-1.628Zm5.6,0a1.628,1.628,0,1,1-1.661,1.628A1.628,1.628,0,0,1,32.88,2.848Z" fill="#8c8b99" fill-rule="evenodd"/>
</svg>
