<svg width="14" height="18" viewBox="0 0 14 18" fill="none" xmlns="http://www.w3.org/2000/svg">
<path d="M13.5332 4.03198C13.5316 4.03041 13.5316 4.02887 13.5301 4.02806L13.4855 3.98345C13.48 3.98033 13.4777 3.97329 13.473 3.97013L9.61703 0.115043C9.56772 0.0657391 9.5051 0.0375652 9.43859 0.02036C9.42216 0.0156644 9.4073 0.0133166 9.39087 0.0109687C9.37362 0.00781385 9.35719 0 9.33998 0H0.731282C0.515282 0 0.339966 0.175316 0.339966 0.391316V17.6087C0.339966 17.8247 0.515282 18 0.731282 18H13.253C13.469 18 13.6443 17.8247 13.6443 17.6087V4.38027C13.6498 4.35521 13.66 4.33097 13.66 4.30437C13.66 4.19398 13.606 4.10323 13.5332 4.03198ZM9.7313 1.33591L12.3084 3.91305H9.7313V1.33591ZM12.8617 17.2174H1.1226V0.782596H8.94867V4.30433C8.94867 4.52033 9.12398 4.69565 9.33998 4.69565H12.8617V17.2174Z" fill="#8C8B99"/>
<path d="M2.68783 7.43479V14.4783C2.68783 14.6943 2.86314 14.8696 3.07914 14.8696H10.9052C11.1212 14.8696 11.2965 14.6943 11.2965 14.4783V7.43479C11.2965 7.21879 11.1212 7.04347 10.9052 7.04347H3.07911C2.86311 7.04347 2.68783 7.21879 2.68783 7.43479ZM5.81825 7.82607H10.5139V9.39129H5.81825V7.82607ZM5.81825 10.1739H10.5139V11.7391H5.81825V10.1739ZM5.81825 12.5217H10.5139V14.0869H5.81825V12.5217ZM3.47042 7.82607H5.03565V9.39129H3.47042V7.82607ZM3.47042 10.1739H5.03565V11.7391H3.47042V10.1739ZM3.47042 12.5217H5.03565V14.0869H3.47042V12.5217Z" fill="#8C8B99"/>
</svg>
