<svg xmlns="http://www.w3.org/2000/svg" width="54.005" height="49.998" viewBox="0 0 54.005 49.998">
  <g id="failure-trends" transform="translate(-0.005 -0.002)">
    <path id="Path_2155" data-name="Path 2155" d="M5.6,6.391V44.472H53.959V50H2.805a2.781,2.781,0,0,1-2.8-2.764V6.391ZM53.59,19.04a2.006,2.006,0,0,1-.382,2.833l-7.423,5.592a2.06,2.06,0,0,1-2.866-.378,2.006,2.006,0,0,1,.382-2.833l2.927-2.2a54.824,54.824,0,0,1-18.112-5.01c-7.138-3.2-13.264-8.312-16.71-13.987a2,2,0,0,1,.7-2.768,2.053,2.053,0,0,1,2.8.7c3.037,5,8.54,9.559,15.352,12.8a50.775,50.775,0,0,0,15.928,4.549l-2.5-2a2.007,2.007,0,0,1-.312-2.842,2.061,2.061,0,0,1,2.874-.309l7.34,5.862ZM51.507,35.617v4.958H45.173V35.617ZM40.181,30.4V40.57H33.847V30.4ZM28.859,26.813V40.57H22.526V26.813ZM17.537,21.347V40.574H11.2V21.347Z" fill="#8c8b99"/>
  </g>
</svg>
