<svg xmlns="http://www.w3.org/2000/svg" width="50.001" height="50" viewBox="0 0 50.001 50">
  <path id="inspection-overview" d="M26.375,28.328l19.694.332a21.558,21.558,0,0,1-9.281,17.784ZM24.41,24.863,24.186,1.506,24.174,0l1.469.1h.008A25.672,25.672,0,0,1,35.962,3.091,26.737,26.737,0,0,1,49.935,25.506L50,27l-1.469-.046-22.8-.714-1.314-.04-.012-1.34ZM26.933,3.041l.2,20.461,19.963.622A23.9,23.9,0,0,0,34.688,5.56a23,23,0,0,0-7.756-2.519ZM22.457,27.1l11.23,19.834A22.143,22.143,0,0,1,22.457,50,22.685,22.685,0,0,1,0,27.1,22.7,22.7,0,0,1,21.509,4.22l.948,22.88Z" transform="translate(0.001)" fill="#8c8b99" fill-rule="evenodd"/>
</svg>
