<svg xmlns="http://www.w3.org/2000/svg" width="75.964" height="50.016" viewBox="0 0 75.964 50.016">
  <path id="inspection-statistics" d="M2.919,29.8H10.1a.833.833,0,0,1,.829.832V49.16a.827.827,0,0,1-.829.825H2.919a.833.833,0,0,1-.835-.825V30.631a.839.839,0,0,1,.835-.832ZM71.734,10.84a4.226,4.226,0,1,1-4.23,4.447L56.545,7.617a4.266,4.266,0,0,1-2.529.825,4.222,4.222,0,0,1-2.622-.906l-9.2,6.973a4.011,4.011,0,0,1,.037.548,4.235,4.235,0,1,1-8.4-.788l-9.39-6.775a4.262,4.262,0,0,1-5.22.062L8.466,15.207A4.241,4.241,0,1,1,7.13,11.985L17.57,4.593V4.23a4.236,4.236,0,0,1,8.473,0v.253l9.71,6.991a4.255,4.255,0,0,1,2.239-.616,4.2,4.2,0,0,1,2.418.758l9.382-7.133v-.26a4.243,4.243,0,0,1,8.479,0,3.141,3.141,0,0,1,0,.425L68.84,12.04A4.214,4.214,0,0,1,71.734,10.84ZM65.859,28.087h7.186a.839.839,0,0,1,.853.869v20.2a.833.833,0,0,1-.835.825H65.877a.827.827,0,0,1-.829-.825v-20.2a.833.833,0,0,1,.829-.832ZM50.138,17.553h7.186a.839.839,0,0,1,.835.832v30.8a.833.833,0,0,1-.835.825H50.138a.827.827,0,0,1-.829-.825v-30.8a.827.827,0,0,1,.829-.832ZM34.4,28.1h7.186a.833.833,0,0,1,.829.856v20.2a.827.827,0,0,1-.829.825H34.4a.827.827,0,0,1-.829-.825v-20.2a.833.833,0,0,1,.829-.832ZM18.658,17.553h7.186a.833.833,0,0,1,.829.832v30.8a.827.827,0,0,1-.829.825H18.658a.833.833,0,0,1-.835-.825v-30.8a.833.833,0,0,1,.835-.832Z" transform="translate(0.014 0.006)" fill="#8c8b99" fill-rule="evenodd"/>
</svg>
