<svg xmlns="http://www.w3.org/2000/svg" width="36" height="36" viewBox="0 0 36 36">
  <g id="alyout" transform="translate(-2 -2)">
    <g id="web_design-browser-user_interface-content-layout" data-name="web design-browser-user interface-content-layout" transform="translate(2 2)">
      <path id="Path_1750" data-name="Path 1750" d="M30.471,12H3.817A1.823,1.823,0,0,0,2,13.817V40.471a1.823,1.823,0,0,0,1.817,1.817H30.471a1.823,1.823,0,0,0,1.817-1.817V13.817A1.823,1.823,0,0,0,30.471,12Zm.606,28.471a.606.606,0,0,1-.606.606H3.817a.606.606,0,0,1-.606-.606V16.846H31.077Zm0-24.836H3.212V13.817a.606.606,0,0,1,.606-.606H30.471a.606.606,0,0,1,.606.606Z" transform="translate(-2 -6.288)" fill="#fff"/>
      <path id="Path_1751" data-name="Path 1751" d="M6.212,15H5.606a.606.606,0,1,0,0,1.212h.606a.606.606,0,1,0,0-1.212Z" transform="translate(-3 -7.4)" fill="#fff"/>
      <path id="Path_1752" data-name="Path 1752" d="M10.212,15H9.606a.606.606,0,1,0,0,1.212h.606a.606.606,0,1,0,0-1.212Z" transform="translate(-4.577 -7.4)" fill="#fff"/>
      <path id="Path_1753" data-name="Path 1753" d="M14.212,15h-.606a.606.606,0,1,0,0,1.212h.606a.606.606,0,1,0,0-1.212Z" transform="translate(-6.221 -7.4)" fill="#fff"/>
      <path id="Path_1754" data-name="Path 1754" d="M36.356,15H20.606a.606.606,0,1,0,0,1.212h15.75a.606.606,0,0,0,0-1.212Z" transform="translate(-9.108 -7.4)" fill="#fff"/>
      <path id="Path_1755" data-name="Path 1755" d="M57.812,38.334l-.783.775V12.045l.783.775a.61.61,0,0,0,.857,0,.594.594,0,0,0,0-.847l-1.817-1.8a.611.611,0,0,0-.857,0l-1.817,1.8a.594.594,0,0,0,0,.847.611.611,0,0,0,.857,0l.783-.775V39.109l-.783-.775a.61.61,0,0,0-.857,0,.594.594,0,0,0,0,.847l1.817,1.8a.611.611,0,0,0,.857,0l1.817-1.8a.594.594,0,0,0,0-.847.611.611,0,0,0-.857,0Z" transform="translate(-22.846 -5.154)" fill="#fff"/>
      <path id="Path_1756" data-name="Path 1756" d="M32.978,3.995l-1.8-1.817a.594.594,0,0,0-.847,0,.611.611,0,0,0,0,.857l.775.783H4.045l.775-.783a.61.61,0,0,0,0-.857.594.594,0,0,0-.847,0l-1.8,1.817a.611.611,0,0,0,0,.857l1.8,1.817a.594.594,0,0,0,.847,0,.611.611,0,0,0,0-.857l-.775-.783H31.109l-.775.783a.61.61,0,0,0,0,.857.594.594,0,0,0,.847,0l1.8-1.817a.611.611,0,0,0,0-.857Z" transform="translate(-2 -2)" fill="#fff"/>
      <path id="Path_1757" data-name="Path 1757" d="M6.606,28.058h24.23a.606.606,0,0,0,.606-.606V22.606A.606.606,0,0,0,30.836,22H6.606A.606.606,0,0,0,6,22.606v4.846A.606.606,0,0,0,6.606,28.058Zm.606-4.846H30.23v3.635H7.212Z" transform="translate(-3.577 -10.023)" fill="#fff"/>
      <path id="Path_1758" data-name="Path 1758" d="M37.144,34H22.606a.606.606,0,0,0-.606.606V47.933a.606.606,0,0,0,.606.606H37.144a.606.606,0,0,0,.606-.606V34.606A.606.606,0,0,0,37.144,34Zm-.606,13.327H23.212V35.212H36.538Z" transform="translate(-10.088 -14.961)" fill="#fff"/>
      <path id="Path_1759" data-name="Path 1759" d="M6.606,42.481h7.269a.606.606,0,0,0,.606-.606V34.606A.606.606,0,0,0,13.875,34H6.606A.606.606,0,0,0,6,34.606v7.269A.606.606,0,0,0,6.606,42.481Zm.606-7.269h6.058v6.058H7.212Z" transform="translate(-3.577 -14.856)" fill="#fff"/>
      <path id="Path_1760" data-name="Path 1760" d="M6.606,54.846h7.269a.606.606,0,0,0,.606-.606V50.606A.606.606,0,0,0,13.875,50H6.606A.606.606,0,0,0,6,50.606V54.24A.606.606,0,0,0,6.606,54.846Zm.606-3.635h6.058v2.423H7.212Z" transform="translate(-3.577 -21.269)" fill="#fff"/>
    </g>
  </g>
</svg>
