<svg xmlns="http://www.w3.org/2000/svg" width="50" height="49.953" viewBox="0 0 50 49.953">
  <g id="log-out" transform="translate(0 -0.047)">
    <path id="Path_2157" data-name="Path 2157" d="M15.566,15.625V12.5a9.34,9.34,0,1,1,18.679,0v3.125A1.56,1.56,0,0,0,35.8,17.188v3.125h3.113V17.188a3.127,3.127,0,0,0-1.557-2.7V12.5a12.453,12.453,0,0,0-24.906,0v1.984a3.127,3.127,0,0,0-1.557,2.7v3.125a3.127,3.127,0,0,0,1.557,2.734,12.613,12.613,0,0,0,6.226,9.625V34.84L7.316,39.063C5.9,39.422,0,41.2,0,45.313v3.125A1.56,1.56,0,0,0,1.557,50H23.349V46.875H3.113V45.313c0-1.219,2.989-2.656,5.043-3.125h.171L20.781,37.5a1.563,1.563,0,0,0,1.012-1.562v-4.2a1.563,1.563,0,0,0-.887-1.406,9.378,9.378,0,0,1-5.339-8.453,1.56,1.56,0,0,0-1.557-1.563V17.188a1.56,1.56,0,0,0,1.556-1.563Z" fill="#8c8b99"/>
    <path id="Path_2158" data-name="Path 2158" d="M37.957,24.04l-4.75-4.75-2.232,2.232,2.042,2.058H21v3.167H33.017L30.975,28.79l2.232,2.232,4.75-4.75A1.583,1.583,0,0,0,37.957,24.04Z" transform="translate(11.582 10.73)" fill="#8c8b99"/>
    <path id="Path_2159" data-name="Path 2159" d="M26.5,33.416A1.583,1.583,0,0,1,24.917,35h-4.75V19.167h4.75A1.583,1.583,0,0,1,26.5,20.75v1.583h3.167V20.75A4.75,4.75,0,0,0,24.917,16H18.583A1.583,1.583,0,0,0,17,17.583v19a1.583,1.583,0,0,0,1.583,1.583h6.333a4.75,4.75,0,0,0,4.75-4.75V31.833H26.5Z" transform="translate(9.444 8.667)" fill="#8c8b99"/>
  </g>
</svg>
