<?xml version="1.0" encoding="UTF-8"?>
<svg id="Layer_2" data-name="Layer 2" xmlns="http://www.w3.org/2000/svg" viewBox="0 0 248.55 81.57">
  <defs>
    <style>
      .cls-1 {
        fill: #ed1c24;
      }

      .cls-2 {
        fill: #ffffff;
      }
    </style>
  </defs>
  <g id="Layer_1-2" data-name="Layer 1">
    <path class="cls-2" d="M28.17,0H0V14.21H26.8c7.86,0,14.25,2.28,19.17,6.82,4.91,4.55,7.38,10.88,7.38,18.99s-2.36,15.05-7.06,19.96c-4.7,4.91-11.18,7.38-19.43,7.38h-9.47V27.11H0v54.45H28.06c12.82,0,23.28-3.82,31.39-11.46,8.11-7.63,12.17-17.75,12.17-30.36C71.62,13.25,57.13,0,28.17,0Z"/>
    <path class="cls-2" d="M151.56,1.4h-17.08V81.57h47.67s11.38-13.97,11.38-13.97h-41.97V1.4Z"/>
    <path class="cls-1" d="M230.4,57.91l18.15,23.66h-19.31l-8.54-13.17c-1.17-1.82-1.98-3.25-2.43-4.28h-.21c-.62,1.39-1.39,2.76-2.33,4.15l-8.69,13.3h-19.2l19.27-23.66-19.27-23.66h19.2l8.69,13.3c.94,1.39,1.71,2.76,2.33,4.15h.21c.45-1.04,1.26-2.46,2.43-4.28l8.54-13.17h19.31l-18.15,23.66Z"/>
    <path class="cls-1" d="M155.01,1.4V15.37h29.27s9.25-13.97,9.25-13.97h-38.52Zm27.16,32.86h-27.16v13.93h38.5l-11.35-13.93Z"/>
    <path class="cls-2" d="M129.57,56.26h-37.68c.59,8.87,6.93,13.3,17.04,13.3,5.47,0,13.33-1.2,18.47-3.55,1.01-.46,2.16,.27,2.16,1.38v8.92c0,.57-.31,1.1-.81,1.35-5.37,2.64-14.57,3.91-22.6,3.91-9.11,0-18.19-2.57-23.25-7.71-5.06-5.14-7.58-12.3-7.58-21.48s2.69-16.57,8.07-22.28c5.38-5.71,12.15-8.57,20.29-8.57s14.45,2.46,19.02,7.38c4.57,4.92,6.86,11.67,6.86,20.26v7.09Zm-15.58-10.46c0-8.56-3.47-12.84-10.4-12.84-2.86,0-5.4,1.17-7.61,3.52-2.21,2.35-3.59,5.45-4.14,9.32h22.15Z"/>
  </g>
</svg>