<svg xmlns="http://www.w3.org/2000/svg" width="47" height="61" viewBox="0 0 47 61">
  <g id="PDF" transform="translate(-57.653)">
    <g id="Group_240" data-name="Group 240" transform="translate(57.653 0)">
      <path id="Path_509" data-name="Path 509" d="M104.651,16.466a.9.9,0,0,0-.262-.6L88.7.258A.9.9,0,0,0,88.071,0H64.01a4.054,4.054,0,0,0-4.056,4.043V8.7a.889.889,0,0,0,1.777,0V4.043A2.27,2.27,0,0,1,64.01,1.787H87.183V12.471a4.935,4.935,0,0,0,4.938,4.921h10.755V56.957a2.27,2.27,0,0,1-2.279,2.256H64.01a2.27,2.27,0,0,1-2.279-2.256V54.133H85.418a.894.894,0,0,0,0-1.787H60.911a1.487,1.487,0,0,1-1.481-1.489V36.372a1.487,1.487,0,0,1,1.481-1.489H93.846a1.487,1.487,0,0,1,1.481,1.489V50.857a1.487,1.487,0,0,1-1.481,1.489H90.323a.894.894,0,0,0,0,1.787h3.523A3.271,3.271,0,0,0,97.1,50.857V36.372A3.271,3.271,0,0,0,93.846,33.1H61.731V13.4a.889.889,0,0,0-1.777,0V33.24a3.28,3.28,0,0,0-2.3,3.132V50.857a3.28,3.28,0,0,0,2.3,3.132v2.968A4.054,4.054,0,0,0,64.01,61H100.6a4.054,4.054,0,0,0,4.056-4.043V16.5c0-.011,0-.022,0-.033ZM88.96,12.471V3.034L101.6,15.6H92.121A3.151,3.151,0,0,1,88.96,12.471Z" transform="translate(-57.653 0)" fill="#fff"/>
      <path id="Path_510" data-name="Path 510" d="M291.581,322.62a.892.892,0,0,0,0-1.783h-3.637a.892.892,0,0,0-.892.892V330.7a.892.892,0,0,0,1.783,0v-3.68h2.456a.892.892,0,0,0,0-1.783h-2.456V322.62Z" transform="translate(-259.886 -282.595)" fill="#fff"/>
      <path id="Path_511" data-name="Path 511" d="M197.523,331.2a.931.931,0,0,0,.909,1.034h0c.075,0,1.845-.007,2.551-.02,2.518-.044,4.346-2.255,4.346-5.258,0-3.157-1.782-5.278-4.434-5.278h-2.484a.892.892,0,0,0-.892.893v.007h0v8.62Zm3.376-7.738c1.954,0,2.651,1.805,2.651,3.494,0,1.652-.812,3.444-2.594,3.475-.373.007-1.068.012-1.635.015,0-1.033-.008-2.694-.008-3.5,0-.671,0-2.411,0-3.485Z" transform="translate(-180.962 -283.339)" fill="#fff"/>
      <path id="Path_512" data-name="Path 512" d="M116.532,320.558a.9.9,0,0,0-.892.892v9.039a.892.892,0,0,0,1.783,0v-3.04c.56,0,1.251-.006,1.625-.006a3.443,3.443,0,1,0,0-6.885h-2.517ZM120.758,324a1.707,1.707,0,0,1-1.709,1.659c-.371,0-1.054,0-1.613.006,0-.575-.006-1.285-.006-1.665,0-.32,0-1.059,0-1.659h1.623A1.707,1.707,0,0,1,120.758,324Z" transform="translate(-108.746 -282.349)" fill="#fff"/>
    </g>
  </g>
</svg>
