<svg xmlns="http://www.w3.org/2000/svg" width="49.998" height="50" viewBox="0 0 49.998 50">
  <path id="plan-vs-actual" d="M21.165,44.849A20.261,20.261,0,0,1,5.115,28.8H7.642A17.811,17.811,0,0,0,21.169,42.326v2.523ZM39.192,26.237a1.237,1.237,0,0,1,0-2.474h9.571a1.237,1.237,0,0,1,0,2.474ZM26.239,10.811a1.237,1.237,0,1,1-2.474,0V1.237a1.237,1.237,0,1,1,2.474,0v9.574Zm0,37.952a1.237,1.237,0,0,1-2.474,0V39.189a1.237,1.237,0,0,1,2.474,0v9.574Zm-25-22.526a1.237,1.237,0,1,1,0-2.474H10.81a1.237,1.237,0,1,1,0,2.474H1.237ZM25,19.1A5.9,5.9,0,1,1,19.1,25,5.9,5.9,0,0,1,25,19.1ZM5.111,21.126A20.273,20.273,0,0,1,21.165,5.074V7.6A17.8,17.8,0,0,0,7.638,21.126ZM28.835,5.07A20.27,20.27,0,0,1,44.889,21.126H42.362A17.811,17.811,0,0,0,28.835,7.6ZM44.893,28.8A20.282,20.282,0,0,1,28.835,44.853V42.326A17.808,17.808,0,0,0,42.366,28.8Z" transform="translate(-0.002)" fill="#8c8b99"/>
</svg>
