<svg xmlns="http://www.w3.org/2000/svg" width="20" height="20" viewBox="0 0 20 20">
  <g id="planner" transform="translate(-4.392 -3.5)">
    <path id="Path_2558" data-name="Path 2558" d="M24.3,13.718l-1.107-1.086a.335.335,0,0,0-.465,0l-1.769,1.736c0-1.679,0-5.979,0-7.6a1.667,1.667,0,0,0-1.681-1.649H18.5V4.452a.971.971,0,0,0-1.941,0v.665H13.643V4.452a.971.971,0,0,0-1.941,0v.665H8.784V4.452a.971.971,0,0,0-1.941,0v.665H6.073A1.667,1.667,0,0,0,4.392,6.766V21.851A1.667,1.667,0,0,0,6.073,23.5h13.2a1.667,1.667,0,0,0,1.681-1.649v-4.4L24.3,14.174a.318.318,0,0,0,0-.456ZM17.22,4.452a.313.313,0,0,1,.626,0V6.514a.313.313,0,0,1-.626,0C17.22,6,17.22,4.964,17.22,4.452Zm-4.86,0a.313.313,0,0,1,.626,0V6.514a.313.313,0,0,1-.626,0C12.36,6,12.36,4.964,12.36,4.452Zm-4.86,0a.313.313,0,0,1,.626,0V6.514a.313.313,0,0,1-.626,0C7.5,6,7.5,4.964,7.5,4.452ZM5.05,6.766a1.015,1.015,0,0,1,1.024-1h.769v.752a.971.971,0,0,0,1.942,0V5.762H11.7v.752a.971.971,0,0,0,1.941,0V5.762h2.919v.752a.971.971,0,0,0,1.941,0V5.762h.769a1.015,1.015,0,0,1,1.024,1v2.2H5.05ZM20.3,18.1v3.754a1.015,1.015,0,0,1-1.024,1H6.073a1.015,1.015,0,0,1-1.024-1V9.609H20.3v5.4l-2.871,2.817a.32.32,0,0,0-.083.136l-.47,1.548a.329.329,0,0,0,.409.4l1.578-.461c.048.065,1.382-1.323,1.438-1.355Zm-1.705.76-.915.268.273-.9,5.007-4.911.642.63ZM8.455,10.6H6.34a.326.326,0,0,0-.329.323v2.074a.326.326,0,0,0,.329.323H8.455a.326.326,0,0,0,.329-.323V10.92A.326.326,0,0,0,8.455,10.6Zm-.329,2.074H6.669V11.242H8.126Zm.329,2.2H6.34a.326.326,0,0,0-.329.323v2.074a.326.326,0,0,0,.329.323H8.455a.326.326,0,0,0,.329-.323V15.2a.326.326,0,0,0-.329-.323Zm-.329,2.074H6.669V15.52H8.126Zm.329,2.2H6.34a.326.326,0,0,0-.329.323V21.55a.326.326,0,0,0,.329.323H8.455a.326.326,0,0,0,.329-.323V19.475A.326.326,0,0,0,8.455,19.153Zm-.329,2.074H6.669V19.8H8.126Zm6.239-8.948H10.324a.323.323,0,1,1,0-.645h4.041A.323.323,0,1,1,14.365,12.279Zm0,4.278H10.324a.323.323,0,1,1,0-.645h4.041A.323.323,0,1,1,14.365,16.557Zm0,4.278H10.324a.323.323,0,1,1,0-.645h4.041A.323.323,0,1,1,14.365,20.835Z" transform="translate(0 0)" fill="#8c8b99"/>
  </g>
</svg>
