<svg id="Print" xmlns="http://www.w3.org/2000/svg" width="61" height="61" viewBox="0 0 61 61">
  <g id="Group_235" data-name="Group 235">
    <path id="Path_503" data-name="Path 503" d="M56.234,19.063H52.422V9.531a1.908,1.908,0,0,0-1.906-1.906H46.7V2.859A2.863,2.863,0,0,0,43.844,0H17.156A2.863,2.863,0,0,0,14.3,2.859V7.625H10.484A1.908,1.908,0,0,0,8.578,9.531v9.531H4.766A4.771,4.771,0,0,0,0,23.828V44.8a4.771,4.771,0,0,0,4.766,4.766H14.3v8.578A2.863,2.863,0,0,0,17.156,61H43.844A2.863,2.863,0,0,0,46.7,58.141V49.563h9.531A4.771,4.771,0,0,0,61,44.8V23.828A4.771,4.771,0,0,0,56.234,19.063ZM50.516,9.531v9.531H46.7V9.531ZM16.2,2.859a.954.954,0,0,1,.953-.953H43.844a.954.954,0,0,1,.953.953v16.2H16.2ZM10.484,9.531H14.3v9.531H10.484ZM44.8,58.141a.954.954,0,0,1-.953.953H17.156a.954.954,0,0,1-.953-.953v-16.2H44.8ZM59.094,44.8a2.863,2.863,0,0,1-2.859,2.859H46.7V41.938h1.906a.953.953,0,0,0,0-1.906H12.391a.953.953,0,0,0,0,1.906H14.3v5.719H4.766A2.863,2.863,0,0,1,1.906,44.8V23.828a2.863,2.863,0,0,1,2.859-2.859H56.234a2.863,2.863,0,0,1,2.859,2.859Z" fill="#fff"/>
    <path id="Path_504" data-name="Path 504" d="M434.9,192a2.9,2.9,0,1,0,2.9,2.9A2.9,2.9,0,0,0,434.9,192Zm0,3.86a.965.965,0,1,1,.965-.965A.966.966,0,0,1,434.9,195.86Z" transform="translate(-380.651 -169.155)" fill="#fff"/>
    <path id="Path_505" data-name="Path 505" d="M370.9,192a2.9,2.9,0,1,0,2.9,2.9A2.9,2.9,0,0,0,370.9,192Zm0,3.86a.965.965,0,1,1,.965-.965A.966.966,0,0,1,370.9,195.86Z" transform="translate(-324.213 -169.155)" fill="#fff"/>
    <path id="Path_506" data-name="Path 506" d="M189.233,376H168.965a.965.965,0,0,0,0,1.93h20.267a.965.965,0,0,0,0-1.93Z" transform="translate(-148.126 -331.221)" fill="#fff"/>
    <path id="Path_507" data-name="Path 507" d="M189.233,416H168.965a.965.965,0,0,0,0,1.93h20.267a.965.965,0,1,0,0-1.93Z" transform="translate(-148.126 -366.581)" fill="#fff"/>
    <path id="Path_508" data-name="Path 508" d="M189.233,456H168.965a.965.965,0,1,0,0,1.93h20.267a.965.965,0,1,0,0-1.93Z" transform="translate(-148.126 -401.756)" fill="#fff"/>
  </g>
</svg>
