<svg xmlns="http://www.w3.org/2000/svg" width="42" height="49.999" viewBox="0 0 42 49.999">
  <path id="project-plan" d="M29.394,14.575l6.7.024a6.691,6.691,0,0,1-2,4.74,6.8,6.8,0,0,1-.978.8l-3.723-5.562ZM.481,49.646A.821.821,0,0,1,0,48.9V.814A.814.814,0,0,1,.815,0h40.37A.814.814,0,0,1,42,.814V44.649a1.232,1.232,0,0,1-.008.126A5.475,5.475,0,0,1,40.42,48.51a6.057,6.057,0,0,1-3.959,1.481.927.927,0,0,1-.106.008H1.153a.822.822,0,0,1-.672-.354ZM14.459,14.2H16.5a.2.2,0,0,1,.2.2v4a.2.2,0,0,1-.2.2H14.459a.2.2,0,0,1-.2-.2v-4a.2.2,0,0,1,.2-.2Zm-7.6-2.454H8.9a.2.2,0,0,1,.2.2v6.466a.2.2,0,0,1-.2.2H6.863a.2.2,0,0,1-.2-.2V11.943a.193.193,0,0,1,.2-.2Zm3.8-1.379H12.7a.2.2,0,0,1,.2.2v7.845a.2.2,0,0,1-.2.2H10.663a.2.2,0,0,1-.2-.2V10.563a.19.19,0,0,1,.2-.2ZM40.375,44.629V1.624H1.625V48.376H36.367A4.507,4.507,0,0,0,39.3,47.339a3.959,3.959,0,0,0,1.075-2.71ZM6.851,43.392a.812.812,0,0,1,0-1.624H35.565a.812.812,0,1,1,0,1.624Zm.13-5.924a.814.814,0,0,1,0-1.628h28.51a.814.814,0,1,1,0,1.628Zm-.13-5.924a.812.812,0,1,1,0-1.624H19.122a.812.812,0,0,1,0,1.624Zm15.4,0a.812.812,0,1,1,0-1.624h13.24a.812.812,0,1,1,0,1.624Zm-15.4-5.286a.814.814,0,1,1,0-1.628H16.968a.814.814,0,0,1,0,1.628Zm0-20.6a.814.814,0,1,1,0-1.628H12.9a.814.814,0,1,1,0,1.628ZM28.71,13.249,28.352,6.1a.256.256,0,0,1,.244-.269h.286a7.426,7.426,0,0,1,7.494,6.9A.255.255,0,0,1,36.14,13l-7.16.513a.256.256,0,0,1-.273-.236.044.044,0,0,0,0-.02Zm.167-6.913.334,6.641L35.85,12.5a6.916,6.916,0,0,0-6.957-6.16h-.016Zm-.969,7.931L31.5,20.475a7.171,7.171,0,1,1-4.631-13.3l1.043,7.092Z" fill="#8c8b99" fill-rule="evenodd"/>
</svg>
