<svg xmlns="http://www.w3.org/2000/svg" width="67.003" height="49.989" viewBox="0 0 67.003 49.989">
  <path id="repair-overview" d="M19.658,14.017a2.333,2.333,0,0,1,1.267-1.361A2.383,2.383,0,0,1,22.8,12.6l3.489,1.272a19.9,19.9,0,0,1,3.3-3.82L27.9,6.435A2.282,2.282,0,0,1,27.825,4.6,2.314,2.314,0,0,1,29.1,3.256l4.6-2.083a2.4,2.4,0,0,1,1.845-.07,2.307,2.307,0,0,1,1.377,1.251l1.542,3.309a19.109,19.109,0,0,1,5.049-.325l1.451-3.772A2.185,2.185,0,0,1,46.192.218,2.4,2.4,0,0,1,48.067.163l4.707,1.724a2.346,2.346,0,0,1,1.383,1.248,2.292,2.292,0,0,1,.059,1.845l-1.29,3.438A20.118,20.118,0,0,1,56.8,11.672l3.667-1.658a2.381,2.381,0,0,1,1.865-.077A2.32,2.32,0,0,1,63.7,11.192l2.113,4.538a2.389,2.389,0,0,1-1.2,3.175l-3.358,1.519a19.678,19.678,0,0,1,.349,5.018l3.808,1.388a2.2,2.2,0,0,1,1.369,1.208,2.307,2.307,0,0,1,.055,1.848L65.1,34.567a2.4,2.4,0,0,1-1.286,1.318,2.446,2.446,0,0,1-1.854.1l-3.508-1.314a20.244,20.244,0,0,1-3.3,3.82l1.683,3.615a2.281,2.281,0,0,1,.079,1.836,2.314,2.314,0,0,1-1.275,1.342l-4.6,2.083a2.4,2.4,0,0,1-1.845.068,2.311,2.311,0,0,1-1.378-1.25l-1.54-3.309a20.491,20.491,0,0,1-5.092.344l-1.408,3.753a2.212,2.212,0,0,1-1.241,1.355,2.275,2.275,0,0,1-1.861.048l-4.75-1.706A2.4,2.4,0,0,1,30.585,45.4a2.347,2.347,0,0,1-.1-1.827l1.332-3.456a16.044,16.044,0,0,1-1.356-.947l3.466-1.72a3.674,3.674,0,0,1,2.1-.362q.638.309,1.307.555a14.977,14.977,0,0,0,5.471.876,14.6,14.6,0,0,0,13.137-9.291,14.019,14.019,0,0,0-.445-10.9,14.381,14.381,0,0,0-13.566-8.315A14.829,14.829,0,0,0,31.69,14.651a14.581,14.581,0,0,0-3.381,6.23,4.439,4.439,0,0,1-1.421,1.763v.008l-3.775,1.826c0-.447.01-.894.042-1.335l-3.826-1.43A2.2,2.2,0,0,1,17.963,20.5a2.307,2.307,0,0,1-.055-1.848l1.75-4.639ZM10.007,49.984A10.869,10.869,0,0,1,2.13,46.89c11.3.01,9.15-13.517-2.13-8.928,1.544-5.539,6.56-7.732,11.961-6.582,2.857.606,4.553,1.113,7.251-.09L28.8,26.649c5.115-2.4,4.135-11.373,12.734-11.887a10.88,10.88,0,0,1,7.878,3.094c-11.306-.012-9.151,13.516,2.13,8.927C50,32.32,44.985,34.514,39.586,33.364c-2.37-.508-4.185-1.537-7.634.112l-9.067,4.5a6.8,6.8,0,0,0-3.4,3.276c-2.443,4.234-3.7,8.386-9.476,8.733Z" transform="translate(0 0.001)" fill="#8c8b99"/>
</svg>
