<svg xmlns="http://www.w3.org/2000/svg" width="10" height="14" viewBox="0 0 10 14">
  <g id="Layer_6" data-name="Layer 6" transform="translate(-10.001 -3.984)">
    <path id="Path_1671" data-name="Path 1671" d="M15,32.072l-3.786-3.879a.669.669,0,0,0-1.072.073.783.783,0,0,0,.071.988L14.5,33.609a.668.668,0,0,0,1,0l4.286-4.354a.783.783,0,0,0,.071-.988.669.669,0,0,0-1.072-.073Z" transform="translate(0 -15.85)" fill="#8c8b99"/>
    <path id="Path_1672" data-name="Path 1672" d="M15,5.747l3.786,3.879a.669.669,0,0,0,1.072-.073.783.783,0,0,0-.071-.988L15.5,4.21a.668.668,0,0,0-1,0L10.215,8.564a.783.783,0,0,0-.071.988.669.669,0,0,0,1.072.073Z" fill="#8c8b99"/>
  </g>
</svg>
