<svg xmlns="http://www.w3.org/2000/svg" width="52.037" height="50.003" viewBox="0 0 52.037 50.003">
  <path id="user-management" d="M18.226,32.586c2.764,5.776,11.148,5.98,13.793.034a15.335,15.335,0,0,1-1.79-2.3l-.262-.382a7.485,7.485,0,0,1-4.85,1.658,7.377,7.377,0,0,1-5.163-2.074l-.237-.225c-.195.534-.423,1.179-.7,1.777a10.045,10.045,0,0,1-.791,1.51Zm24.83-.534A8.974,8.974,0,1,1,34.1,41.025a8.974,8.974,0,0,1,8.956-8.973Zm-1.32,3.817h2.645a.314.314,0,0,1,.313.314v3.21H47.9a.314.314,0,0,1,.313.314v2.655a.314.314,0,0,1-.313.314H44.694v3.21a.318.318,0,0,1-.313.318H41.736a.322.322,0,0,1-.317-.318v-3.21h-3.2a.313.313,0,0,1-.313-.314V39.7a.313.313,0,0,1,.313-.314h3.2v-3.21a.318.318,0,0,1,.317-.314ZM32.8,31.979a8.542,8.542,0,0,0,.91.556A12.658,12.658,0,0,0,31.934,47H2.546c-4.617-.352-1.782-7.014-.4-8.834C5.453,33.8,13.152,35,17.413,32a9.218,9.218,0,0,0,.677-1.323c.343-.776.652-1.628.846-2.209A27.8,27.8,0,0,1,16.715,25.3l-2.243-3.592a6.317,6.317,0,0,1-1.27-3.274,2.549,2.549,0,0,1,.22-1.17,2.191,2.191,0,0,1,.77-.9,2.634,2.634,0,0,1,.546-.276,55.956,55.956,0,0,1-.106-6.438,8.429,8.429,0,0,1,.275-1.459,8.636,8.636,0,0,1,3.809-4.852,12.227,12.227,0,0,1,3.17-1.421c.711-.2-.106-1.811.631-1.887C26.08-.334,31.35,2.253,33.863,4.955a8.63,8.63,0,0,1,2.2,5.513l-.14,5.844h0a1.618,1.618,0,0,1,1.185,1.226,5.014,5.014,0,0,1-.618,3.079h0l-.038.072L33.913,24.93a23.814,23.814,0,0,1-3.187,4.33l.339.492a14.665,14.665,0,0,0,1.693,2.159.284.284,0,0,1,.059.064ZM16.025,17.136a2.248,2.248,0,0,0-1.134.293.911.911,0,0,0-.322.377,1.334,1.334,0,0,0-.106.6,5.383,5.383,0,0,0,1.071,2.612h0L17.782,24.6A18.962,18.962,0,0,0,20.8,28.574a6.168,6.168,0,0,0,4.3,1.739A6.341,6.341,0,0,0,29.67,28.5a20.14,20.14,0,0,0,3.106-4.241l2.539-4.177a4.055,4.055,0,0,0,.533-2.222c-.063-.254-.343-.377-.813-.424h-.66a.773.773,0,0,1-.2,0,3.518,3.518,0,0,1-.694-.038l.868-3.829C27.918,14.583,23.106,9.8,16.3,12.611l.491,4.533a3.8,3.8,0,0,1-.77-.034Z" transform="translate(-0.011 0.003)" fill="#8c8b99" fill-rule="evenodd"/>
</svg>
