<svg xmlns="http://www.w3.org/2000/svg" width="61" height="37" viewBox="0 0 61 37">
  <g id="View" transform="translate(0 -96)">
    <path id="Path_500" data-name="Path 500" d="M156,167.133c0,6.139,5.508,11.133,12.279,11.133s12.279-4.994,12.279-11.133S175.049,156,168.279,156,156,160.994,156,167.133Zm22.1,0c0,4.911-4.407,8.906-9.823,8.906s-9.823-4-9.823-8.906,4.407-8.906,9.823-8.906S178.1,162.222,178.1,167.133Z" transform="translate(-137.779 -52.633)" fill="#fff"/>
    <path id="Path_501" data-name="Path 501" d="M216,220.911A4.911,4.911,0,1,0,220.911,216,4.917,4.917,0,0,0,216,220.911Zm7.367,0a2.456,2.456,0,1,1-2.456-2.456A2.459,2.459,0,0,1,223.367,220.911Z" transform="translate(-190.412 -106.411)" fill="#fff"/>
    <circle id="Ellipse_66" data-name="Ellipse 66" cx="1.31" cy="1.31" r="1.31" transform="translate(46.956 124.241)" fill="#fff"/>
    <path id="Path_502" data-name="Path 502" d="M51.839,104.94c-6-4.858-13.463-8.94-21.34-8.94s-15.341,4.081-21.34,8.94A60.759,60.759,0,0,0,.241,113.8a1.129,1.129,0,0,0,0,1.395A60.759,60.759,0,0,0,9.16,124.06c6,4.858,13.463,8.94,21.34,8.94a29.255,29.255,0,0,0,14-3.962,1.138,1.138,0,0,0,.452-1.575,1.211,1.211,0,0,0-1.623-.439A26.866,26.866,0,0,1,30.5,130.688c-7.785,0-15.05-4.552-19.773-8.371A61.617,61.617,0,0,1,2.715,114.5a61.609,61.609,0,0,1,8.011-7.816c4.724-3.819,11.989-8.371,19.773-8.371s15.05,4.552,19.773,8.371a61.6,61.6,0,0,1,8.011,7.817,61.3,61.3,0,0,1-6.5,6.551,1.132,1.132,0,0,0-.1,1.633,1.217,1.217,0,0,0,1.682.092,59.719,59.719,0,0,0,7.388-7.579,1.129,1.129,0,0,0,0-1.395,60.77,60.77,0,0,0-8.919-8.862Z" transform="translate(0 0)" fill="#fff"/>
  </g>
</svg>
