<svg xmlns="http://www.w3.org/2000/svg" width="53" height="61" viewBox="0 0 53 61">
  <g id="Word" transform="translate(-25.598 0)">
    <g id="Group_243" data-name="Group 243" transform="translate(25.598 0)">
      <g id="Group_242" data-name="Group 242" transform="translate(0 0)">
        <g id="Group_241" data-name="Group 241">
          <path id="Path_513" data-name="Path 513" d="M75.654,5.083H58.968V1.016a1.034,1.034,0,0,0-.343-.772.961.961,0,0,0-.79-.232L28.088,4.826A3,3,0,0,0,25.6,7.84V53.159a3,3,0,0,0,2.49,3.013l29.747,4.815a.915.915,0,0,0,.151.012.963.963,0,0,0,.638-.244,1.033,1.033,0,0,0,.343-.772V55.916H75.654a3,3,0,0,0,2.944-3.05V8.133A3,3,0,0,0,75.654,5.083ZM57.005,6.1V58.8L28.391,54.164a1,1,0,0,1-.83-1V7.84a1,1,0,0,1,.83-1L57.005,2.2Zm19.63,46.767a1,1,0,0,1-.981,1.017H58.968V46.766h10.8a1.017,1.017,0,0,0,0-2.033h-10.8V40.666h10.8a1.017,1.017,0,0,0,0-2.033h-10.8V34.566h10.8a1.017,1.017,0,0,0,0-2.033h-10.8V28.466h10.8a1.017,1.017,0,0,0,0-2.033h-10.8V22.366h10.8a1.017,1.017,0,0,0,0-2.033h-10.8V16.267h10.8a1.017,1.017,0,0,0,0-2.033h-10.8V7.116H75.654a1,1,0,0,1,.981,1.017Z" transform="translate(-25.598 0)" fill="#fff"/>
          <path id="Path_514" data-name="Path 514" d="M88.383,197.593a1.012,1.012,0,0,0,1.9.266l5.13-10.26,5.189,11.244a1.012,1.012,0,0,0,1.917-.257l3.036-18.215a1.012,1.012,0,0,0-2-.333l-2.5,14.974-4.7-10.172a1.012,1.012,0,0,0-.9-.588.963.963,0,0,0-.921.559l-4.727,9.453-2.481-13.235a1.011,1.011,0,1,0-1.988.372Z" transform="translate(-79.246 -157.792)" fill="#fff"/>
        </g>
      </g>
    </g>
  </g>
</svg>
