<?xml version="1.0" encoding="UTF-8"?>
<svg id="Layer_2" data-name="Layer 2" xmlns="http://www.w3.org/2000/svg" viewBox="0 0 50 51">
  <defs>
    <style>
      .cls-1 {
        fill: #8c8b99;
      }
    </style>
  </defs>
  <g id="Layer_1-2" data-name="Layer 1">
    <path class="cls-1" d="M29.9,48.26H3.13c-.83,0-1.63-.33-2.21-.91l-.08-.1c-.53-.56-.83-1.3-.84-2.07V3.1C0,2.28,.33,1.49,.92,.91l.1-.08C1.59,.3,2.34,0,3.12,0H38.93c1.76,0,3.18,1.39,3.18,3.1V27.65c0,.09,0,.18-.03,.26,6.33,2.34,9.51,9.23,7.11,15.39-2.41,6.16-9.49,9.26-15.82,6.92-1.26-.47-2.44-1.13-3.48-1.97h0Zm5.99-14.13h1.13c.23,0,.46,.09,.62,.25,.17,.16,.26,.38,.26,.62v4.54h4.21c.47,0,.84,.37,.84,.83v1.22c0,.23-.1,.45-.26,.61l-.03,.03c-.16,.14-.36,.22-.58,.22h-6.71c-.23,0-.42-.19-.42-.42v-7.11c.01-.21,.1-.4,.25-.55,.16-.16,.38-.25,.61-.25h.07Zm3.28-6.65V2.91c-.02-.23-.21-.41-.44-.42H2.97c-.1,0-.2,.03-.28,.1l-.03,.03c-.08,.08-.13,.19-.13,.31V45.33c0,.1,.03,.19,.1,.27l.04,.03c.08,.08,.19,.13,.31,.13H27.34c-3.69-5.49-2.12-12.87,3.51-16.47,1.98-1.27,4.29-1.94,6.65-1.95,.55,0,1.1,.04,1.65,.11h.01Zm5.2,4.99c-3.92-3.89-10.38-3.75-14.12,.42-3.2,3.57-3.21,9.06-.02,12.64,3.73,4.18,10.19,4.34,14.12,.47,1.82-1.79,2.85-4.23,2.85-6.77,0-2.54-1.02-4.97-2.83-6.76h0Zm-35.47-1.66h3.67c.27,0,.49,.2,.49,.46,0,0,0,0,0,.01v3.63c0,.26-.22,.48-.48,.48h-3.67c-.27,0-.48-.21-.48-.48h0v-3.63c0-.26,.22-.48,.48-.48h-.01Zm9.2,3.74c-.81-.15-1.35-.92-1.2-1.72,.11-.6,.59-1.08,1.2-1.19h3.93c.81,.15,1.35,.92,1.2,1.72-.11,.6-.59,1.08-1.2,1.19h-3.93ZM8.89,9.15h3.67c.27,0,.49,.2,.49,.46,0,0,0,0,0,.01v3.63c0,.26-.22,.48-.48,.48h-3.67c-.27,0-.48-.21-.48-.48h0v-3.63c0-.26,.22-.48,.48-.48h-.01Zm9.33,3.74c-.74-.07-1.29-.72-1.23-1.45-.06-.74,.49-1.39,1.23-1.46h14.58c.74,.07,1.29,.72,1.23,1.46,.06,.74-.49,1.38-1.23,1.45h-14.58ZM7.74,22.47c-.28-.36-.22-.89,.15-1.17,0,0,0,0,0,0,.35-.33,.9-.35,1.26-.04l.88,.9,2.21-2.23c.34-.29,.85-.26,1.15,.08,.01,.02,.03,.03,.04,.05,.35,.33,.38,.88,.08,1.25l-2.95,2.97c-.34,.29-.86,.26-1.15-.08-.01-.01-.02-.03-.04-.04l-.07-.08s-.09-.07-.13-.11l-1.45-1.49Zm10.46,1.25c-.74-.07-1.29-.72-1.23-1.46-.06-.74,.49-1.38,1.23-1.46h14.58c.74,.07,1.29,.72,1.23,1.46,.06,.74-.49,1.38-1.23,1.46h-14.58Z"/>
  </g>
</svg>